<svg width="41" height="40" fill="none" xmlns="http://www.w3.org/2000/svg"><g clip-path="url('#clip0_945_3517')" stroke="#FAFAFA" stroke-width="2" stroke-linecap="round" stroke-linejoin="round"><path d="M12.166 31.667a3.333 3.333 0 1 0 0-6.667 3.333 3.333 0 0 0 0 6.667ZM28.833 31.667a3.333 3.333 0 1 0 0-6.667 3.333 3.333 0 0 0 0 6.667Z"/><path d="M8.833 28.334H7.5a2 2 0 0 1-2-2v-4.667M3.833 8.333h16.333a2 2 0 0 1 2 2v18m-6.666 0h10m6.666 0H33.5a2 2 0 0 0 2-2v-8m0 0H22.166m13.334 0-4.418-7.362a2 2 0 0 0-1.715-.97h-7.2"/><path d="M8.5 28H7.167a2 2 0 0 1-2-2v-4.667M3.5 8h16.333a2 2 0 0 1 2 2v18M15.5 28h9.667m7.333 0h.667a2 2 0 0 0 2-2v-8m0 0H21.833m13.334 0-4.418-7.362a2 2 0 0 0-1.715-.971h-7.2M5.5 11.818h6.667M2.318 15.455h6.667M5.5 19.09h6.667"/></g><defs><clipPath id="clip0_945_3517"><path fill="#fff" transform="translate(.5)" d="M0 0h40v40H0z"/></clipPath></defs></svg>