<svg width="40" height="40" fill="none" xmlns="http://www.w3.org/2000/svg"><g clip-path="url('#clip0_945_3534')" stroke="#fff" stroke-width="2" stroke-linecap="round" stroke-linejoin="round"><path d="M13.334 25a3.333 3.333 0 1 0-6.667 0v3.333a3.333 3.333 0 1 0 6.667 0V25ZM33.334 25a3.333 3.333 0 1 0-6.667 0v3.333a3.333 3.333 0 1 0 6.667 0V25Z"/><path d="M6.667 25v-5a13.334 13.334 0 0 1 26.667 0v5M30 31.667c0 1.326-1.054 2.598-2.929 3.535-1.875.938-4.419 1.465-7.071 1.465"/></g><defs><clipPath id="clip0_945_3534"><path fill="#fff" d="M0 0h40v40H0z"/></clipPath></defs></svg>