<svg width="41" height="40" fill="none" xmlns="http://www.w3.org/2000/svg"><path d="M20.928 18.146v.5h.5a3.21 3.21 0 0 1 3.026 2.14.427.427 0 1 1-.806.284 2.355 2.355 0 0 0-2.22-1.57h-.5v4.71h.5a3.21 3.21 0 1 1 0 6.417h-.5V31.555h-.855V30.627h-.5a3.21 3.21 0 0 1-3.026-2.14l-.005-.013a.427.427 0 0 1 .11-.469l-.335-.368.336.368a.428.428 0 0 1 .695.185l.002.007.002.007a2.357 2.357 0 0 0 2.221 1.569h.5v-4.71h-.5a3.209 3.209 0 1 1 0-6.417h.5V17.718h.855v.428ZM20.073 20v-.5h-.5a2.354 2.354 0 1 0 0 4.71h.5V20Zm.855 9.273v.5h.5a2.355 2.355 0 1 0 0-4.71h-.5v4.21Z" fill="#FAFAFA" stroke="#FAFAFA"/><path d="m13.206 12.578.316.122c4.349 1.68 9.586 1.68 13.935-.002l.313-.12.23.242c1.898 2.001 3.486 4.275 4.71 6.746l.002.002c1.275 2.602 1.992 5.245 1.875 7.562-.115 2.261-1.015 4.227-3.065 5.676-2.11 1.49-5.575 2.528-10.987 2.528-5.415 0-8.895-1.02-11.022-2.492-2.064-1.43-2.975-3.37-3.103-5.605l6.796-14.66Zm0 0-.23.248m.23-.248-.23.248m0 0c-1.819 1.96-3.51 4.364-4.725 6.867m4.724-6.867-4.724 6.867m0 0c-1.27 2.62-1.973 5.25-1.84 7.544l1.84-7.544ZM30.343 6.18c.44.218.821.427 1.134.613l-3.131 4.579-.232.338.287.293a28.444 28.444 0 0 1 5.08 7.188c1.313 2.68 2.087 5.47 1.96 7.982-.126 2.49-1.136 4.712-3.425 6.33-2.31 1.632-5.978 2.684-11.48 2.684-5.503 0-9.182-1.033-11.508-2.644-2.304-1.595-3.329-3.79-3.47-6.258-.142-2.49.618-5.27 1.926-7.966 1.305-2.69 3.139-5.26 5.097-7.32l.278-.293-.227-.333-3.11-4.576c.158-.093.332-.19.521-.291l.002-.001c.19-.103.396-.208.616-.316l.196-.095c2.246-1.071 5.808-2.286 9.68-2.286 3.901 0 7.46 1.234 9.68 2.311l.124.06.002.001Zm-3.619 5.878.154-.054.092-.135 2.742-4.008.585-.856-1.034.075c-2.593.187-5.663.794-8.608 1.646-1.984.574-4.216.492-6.321.104a22.828 22.828 0 0 1-1.576-.35l-1.285-.334.746 1.099 1.78 2.621.092.135.154.055c3.924 1.397 8.555 1.397 12.48.002ZM12.08 6.48l-1.28.543 1.333.397c.757.225 1.55.421 2.355.57 2.035.375 4.12.44 5.929-.084a49.66 49.66 0 0 1 5.995-1.35l.065-.973c-1.742-.525-3.787-.919-5.942-.919-3.281 0-6.329.914-8.455 1.816Z" fill="#FAFAFA" stroke="#FAFAFA"/></svg>