<svg width="40" height="40" fill="none" xmlns="http://www.w3.org/2000/svg"><path d="M8.1 30.6c-.874-.652-1.674-1.68-2.257-2.841-.583-1.162-.926-2.414-.926-3.492v-12.4c0-2.36 1.755-4.905 3.974-5.732h.001l8.317-3.117c.753-.281 1.753-.43 2.775-.43 1.021 0 2.02.149 2.774.43l8.317 3.117c2.22.827 3.975 3.372 3.975 5.732V24.25c0 1.087-.343 2.34-.926 3.498-.582 1.16-1.383 2.183-2.256 2.834l-7.167 5.35-.006.005c-1.283.99-2.97 1.496-4.695 1.496-1.722 0-3.415-.506-4.735-1.484l-7.166-5.35ZM17.741 4.43 9.424 7.549c-.828.312-1.57.974-2.1 1.743-.532.768-.891 1.699-.891 2.592v12.384c0 .894.31 1.922.767 2.834.457.912 1.093 1.771 1.8 2.3l7.167 5.35c1.062.794 2.46 1.174 3.834 1.174s2.777-.38 3.846-1.173l.001-.001 7.167-5.35.001-.001c.715-.536 1.35-1.395 1.805-2.306.456-.91.762-1.934.762-2.827v-12.4c0-.887-.36-1.813-.891-2.58-.53-.768-1.27-1.433-2.095-1.753l-.005-.002-8.317-3.117-.01-.003c-.637-.225-1.465-.329-2.265-.327-.799.003-1.626.11-2.259.346Z" fill="#FAFAFA" stroke="#FAFAFA"/><path d="m17.413 21.054.354.353.354-.353 6.283-6.284a.758.758 0 0 1 1.06 0 .757.757 0 0 1 0 1.06l-7.167 7.167a.736.736 0 0 1-.53.22.736.736 0 0 1-.53-.22l-2.683-2.684a.758.758 0 0 1 0-1.06.758.758 0 0 1 1.06 0l1.8 1.8Z" fill="#FAFAFA" stroke="#FAFAFA"/></svg>