<svg width="35" height="32" fill="none" xmlns="http://www.w3.org/2000/svg"><path d="M31.642 1h-6.654l.834 8.333S27.488 11 29.988 11a5.384 5.384 0 0 0 3.565-1.343.838.838 0 0 0 .25-.775l-1.176-7.049A1 1 0 0 0 31.642 1Z" stroke="#fff" stroke-width="2"/><path d="m24.988 1 .834 8.333S24.155 11 21.655 11s-4.167-1.667-4.167-1.667V1h7.5Z" stroke="#FAFAFA" stroke-width="2"/><path d="M17.489 1v8.333S15.822 11 13.322 11 9.155 9.333 9.155 9.333L9.99 1h7.5Z" stroke="#FAFAFA" stroke-width="2"/><path d="M9.988 1H3.337a1 1 0 0 0-.987.835L1.175 8.883a.84.84 0 0 0 .25.775 5.387 5.387 0 0 0 3.563 1.344c2.5 0 4.167-1.667 4.167-1.667l.833-8.333V1Z" stroke="#FAFAFA" stroke-width="2"/><path d="M2.5 11v16.667A3.333 3.333 0 0 0 5.833 31h23.334a3.333 3.333 0 0 0 3.333-3.333V11" stroke="#FAFAFA" stroke-width="2"/><path d="M22.222 31V21a3.334 3.334 0 0 0-3.334-3.333h-3.333A3.333 3.333 0 0 0 12.222 21v10" stroke="#FAFAFA" stroke-width="2" stroke-miterlimit="16"/></svg>